#define r0_width 32
#define r0_height 48
static char r0_bits[] = {
  0x00, 0x00, 0x00, 0x00, 0x00, 0x40, 0x00, 0x00, 0x00, 0x60, 0x00, 0x00, 
  0x90, 0x63, 0xFE, 0x04, 0x10, 0x60, 0x00, 0x04, 0x10, 0x60, 0x00, 0x04, 
  0x10, 0x60, 0x01, 0x04, 0x10, 0x60, 0x03, 0x04, 0x10, 0x00, 0x03, 0x04, 
  0x10, 0x40, 0x03, 0x04, 0x10, 0x60, 0x03, 0x04, 0x10, 0x60, 0x03, 0x04, 
  0x10, 0x60, 0x03, 0x04, 0x10, 0x60, 0x03, 0x04, 0x10, 0x70, 0x03, 0x04, 
  0x10, 0x70, 0x03, 0x04, 0x10, 0x70, 0x03, 0x04, 0x10, 0x78, 0x03, 0x04, 
  0x10, 0x78, 0x03, 0x04, 0x10, 0x3C, 0x03, 0x04, 0x10, 0x3C, 0x02, 0x04, 
  0x10, 0x3C, 0x06, 0x04, 0x10, 0x1E, 0x06, 0x04, 0x10, 0x1E, 0x06, 0x04, 
  0x10, 0x3F, 0x06, 0x04, 0x10, 0x3F, 0x06, 0x04, 0x80, 0x3F, 0x0C, 0x04, 
  0x80, 0x7F, 0x0C, 0x04, 0xC0, 0x7F, 0x18, 0x04, 0xC0, 0xE7, 0x18, 0x04, 
  0xE0, 0xE7, 0x38, 0x04, 0xF0, 0xE3, 0x33, 0x04, 0xF0, 0xC3, 0x7F, 0x04, 
  0xF8, 0x81, 0x7F, 0x00, 0xFC, 0x00, 0xFE, 0x00, 0xFC, 0x00, 0xF0, 0x01, 
  0x7E, 0x00, 0xE0, 0x01, 0x3E, 0x00, 0xC0, 0x07, 0x1E, 0x00, 0x80, 0x07, 
  0x0E, 0x00, 0x80, 0x3F, 0x06, 0x00, 0x00, 0x3E, 0x00, 0x00, 0x00, 0x00, 
  0x00, 0x00, 0x00, 0x00, 0xF0, 0xFF, 0xFF, 0x07, 0x00, 0x00, 0x00, 0x00, 
  0x00, 0x00, 0x00, 0x00, 0x00, 0x00, 0x00, 0x00, 0x00, 0x00, 0x00, 0x00, 
  };
