#define r1_width 32
#define r1_height 48
static char r1_bits[] = {
  0x00, 0x00, 0x00, 0x00, 0x00, 0x00, 0x00, 0x00, 0x00, 0x00, 0x00, 0x00, 
  0x00, 0x00, 0x00, 0x00, 0x00, 0x00, 0x00, 0x00, 0x00, 0x00, 0x00, 0x00, 
  0x00, 0x00, 0x00, 0x00, 0x00, 0x00, 0x00, 0x00, 0x00, 0x00, 0x00, 0x00, 
  0x00, 0xC0, 0x1F, 0x00, 0x00, 0xE0, 0x7F, 0x00, 0x00, 0xF8, 0xFF, 0x00, 
  0x00, 0xF8, 0xFF, 0x01, 0x00, 0xFC, 0xFF, 0x01, 0x00, 0xFE, 0xFF, 0x03, 
  0x00, 0xFE, 0xF8, 0x03, 0x00, 0x7F, 0xF8, 0x03, 0x00, 0x3F, 0xF8, 0x03, 
  0x00, 0x1F, 0xF8, 0x03, 0x00, 0x03, 0xF8, 0x03, 0x80, 0x01, 0xF8, 0x03, 
  0x80, 0x00, 0xF8, 0x01, 0x00, 0x00, 0xFC, 0x01, 0x00, 0x00, 0xFC, 0x00, 
  0x00, 0x00, 0xFE, 0x00, 0x00, 0x00, 0x7E, 0x00, 0x00, 0x00, 0x3F, 0x00, 
  0x00, 0x00, 0x1F, 0x00, 0x00, 0x80, 0x1F, 0x00, 0x00, 0x80, 0x0F, 0x00, 
  0x00, 0xC0, 0x07, 0x00, 0x00, 0xE0, 0x01, 0x00, 0x00, 0xE0, 0x00, 0x00, 
  0x00, 0x70, 0x80, 0x01, 0x00, 0x70, 0xC0, 0x01, 0x00, 0xF8, 0xF1, 0x01, 
  0x00, 0xFC, 0xFF, 0x01, 0x00, 0xE6, 0xFF, 0x00, 0x00, 0xC3, 0xFF, 0x00, 
  0x00, 0x83, 0x7F, 0x00, 0x00, 0x80, 0x1F, 0x00, 0x00, 0x00, 0x00, 0x00, 
  0x00, 0x00, 0x00, 0x00, 0x00, 0x00, 0x00, 0x00, 0x00, 0x00, 0x00, 0x00, 
  0x00, 0x00, 0x00, 0x00, 0x00, 0x00, 0x00, 0x00, 0x00, 0x00, 0x00, 0x00, 
  };
