#define r10_width 32
#define r10_height 48
static char r10_bits[] = {
  0x00, 0x00, 0x00, 0x00, 0x00, 0x00, 0x00, 0x00, 0x00, 0xFE, 0xFF, 0x07, 
  0xE0, 0xFF, 0xFF, 0x3F, 0xE0, 0xFF, 0xFF, 0x3F, 0xE0, 0x07, 0x80, 0x3F, 
  0x20, 0xE0, 0x00, 0x3C, 0x00, 0xA0, 0x03, 0x30, 0x00, 0x20, 0x04, 0x00, 
  0x00, 0x20, 0x04, 0x00, 0x00, 0xC2, 0x03, 0x00, 0x00, 0x0E, 0xE0, 0x01, 
  0x00, 0x0A, 0x20, 0x02, 0x00, 0x0C, 0x10, 0x02, 0x00, 0x88, 0x23, 0x02, 
  0x00, 0x40, 0xC4, 0x03, 0x00, 0x40, 0x0C, 0x00, 0xC0, 0x43, 0x08, 0x00, 
  0x20, 0x42, 0x0C, 0x18, 0x20, 0x82, 0x07, 0x14, 0x20, 0x06, 0x01, 0x13, 
  0x20, 0x04, 0xE3, 0x11, 0x40, 0x88, 0x23, 0x10, 0x80, 0x86, 0x23, 0x10, 
  0x80, 0xC3, 0x63, 0x10, 0x00, 0xC0, 0xC3, 0x0F, 0x00, 0xC0, 0x03, 0x00, 
  0x00, 0xC0, 0x03, 0x00, 0x00, 0xE0, 0x03, 0x00, 0x00, 0xE0, 0x03, 0x00, 
  0x00, 0xE0, 0x07, 0x00, 0x00, 0xE0, 0x07, 0x00, 0x00, 0xF0, 0x07, 0x00, 
  0x08, 0xF0, 0x0F, 0x00, 0x0C, 0xF8, 0x0F, 0x00, 0x0E, 0x1C, 0x0C, 0x00, 
  0x06, 0x00, 0x00, 0x00, 0x06, 0xF8, 0x03, 0x00, 0x0E, 0xFC, 0x01, 0x00, 
  0x1E, 0xFE, 0x00, 0x00, 0xFE, 0x7F, 0x00, 0x00, 0xFC, 0x3F, 0x00, 0x00, 
  0xFC, 0x0F, 0x00, 0x00, 0xF8, 0x07, 0x00, 0x00, 0x00, 0x00, 0x00, 0x00, 
  0x00, 0x00, 0x00, 0x00, 0x00, 0x00, 0x00, 0x00, 0x00, 0x00, 0x00, 0x00, 
  };
