#define r100_width 32
#define r100_height 48
static char r100_bits[] = {
  0x00, 0x00, 0x00, 0x00, 0x00, 0x00, 0x00, 0x00, 0x00, 0x00, 0x00, 0x00, 
  0x00, 0x00, 0x00, 0x00, 0x00, 0x00, 0x00, 0x00, 0x00, 0x00, 0x00, 0x00, 
  0x00, 0x00, 0x08, 0x00, 0x00, 0x00, 0x08, 0x00, 0x00, 0x00, 0x1C, 0x00, 
  0x00, 0x00, 0x3E, 0x00, 0x00, 0x00, 0x3E, 0x00, 0x00, 0x00, 0x3E, 0x00, 
  0x00, 0x00, 0x3E, 0x00, 0x00, 0x00, 0x3F, 0x00, 0x00, 0x00, 0x3F, 0x00, 
  0x00, 0x80, 0x3F, 0x00, 0x00, 0xC0, 0x3F, 0x00, 0x00, 0xE0, 0x3F, 0x00, 
  0x80, 0xFF, 0x3F, 0x00, 0x80, 0xFF, 0x3F, 0x00, 0x00, 0xFF, 0x3F, 0x00, 
  0x00, 0x7E, 0x3F, 0x00, 0x00, 0x38, 0x3F, 0x00, 0x00, 0x00, 0x3F, 0x00, 
  0x00, 0x00, 0x3F, 0x00, 0x00, 0x80, 0x3F, 0x00, 0x00, 0x80, 0x1F, 0x00, 
  0x00, 0x80, 0x1F, 0x00, 0x00, 0x80, 0x1F, 0x00, 0x00, 0x80, 0x1F, 0x00, 
  0x00, 0xC0, 0x1F, 0x00, 0x00, 0xC0, 0x1F, 0x00, 0x00, 0xC0, 0x1F, 0x00, 
  0x00, 0xE0, 0x0F, 0x00, 0x00, 0xE0, 0x0F, 0x00, 0x00, 0xF0, 0x07, 0x00, 
  0x80, 0xF3, 0x07, 0x20, 0xC0, 0xFF, 0x01, 0x30, 0xE0, 0xFF, 0x01, 0x30, 
  0xE0, 0xFC, 0x03, 0x70, 0x40, 0xE0, 0x0F, 0x7E, 0x00, 0xC0, 0xFF, 0x7F, 
  0x00, 0x00, 0xFF, 0x7F, 0x00, 0x00, 0xFE, 0x1F, 0x00, 0x00, 0xF8, 0x07, 
  0x00, 0x00, 0x00, 0x00, 0x00, 0x00, 0x00, 0x00, 0x00, 0x00, 0x00, 0x00, 
  };
