#define r12_width 32
#define r12_height 48
static char r12_bits[] = {
  0x00, 0x00, 0x00, 0x00, 0x00, 0x00, 0x00, 0x00, 0x00, 0x00, 0x00, 0x00, 
  0x00, 0x00, 0x00, 0x00, 0x00, 0x00, 0x00, 0x00, 0x00, 0x00, 0x00, 0x00, 
  0x00, 0x00, 0x00, 0x00, 0x00, 0x00, 0x00, 0x00, 0x00, 0x00, 0x00, 0x00, 
  0x00, 0x00, 0x00, 0x00, 0x00, 0x20, 0x04, 0x00, 0x00, 0x20, 0x04, 0x00, 
  0x00, 0x30, 0x0C, 0x00, 0x00, 0x30, 0x1C, 0x00, 0x00, 0x38, 0x3C, 0x00, 
  0x00, 0x18, 0x4C, 0x00, 0x00, 0x14, 0xC8, 0x00, 0x00, 0x1A, 0x88, 0x00, 
  0x00, 0x89, 0x08, 0x01, 0x00, 0xC9, 0x08, 0x03, 0x80, 0xC9, 0x08, 0x02, 
  0x80, 0xC8, 0x08, 0x02, 0x80, 0xEC, 0x18, 0x06, 0xC0, 0xE4, 0x11, 0x04, 
  0x40, 0xF4, 0x11, 0x04, 0x60, 0xFC, 0x31, 0x04, 0x20, 0xFC, 0x23, 0x0C, 
  0x30, 0xF8, 0x27, 0x08, 0x30, 0xF8, 0x2F, 0x08, 0x10, 0xF0, 0x2F, 0x08, 
  0x10, 0xE0, 0x1F, 0x18, 0x10, 0xC0, 0x0F, 0x18, 0x18, 0x00, 0x00, 0x18, 
  0x18, 0x00, 0x00, 0x10, 0x08, 0x1C, 0x38, 0x10, 0x08, 0x7C, 0xF8, 0x10, 
  0x08, 0x7E, 0xFC, 0x11, 0x08, 0x3F, 0xFC, 0x19, 0x18, 0x3F, 0xFE, 0x18, 
  0x18, 0x1E, 0xFE, 0x18, 0x18, 0x1C, 0x7E, 0x08, 0x10, 0x00, 0x30, 0x08, 
  0x30, 0x00, 0x00, 0x04, 0x60, 0x00, 0x00, 0x04, 0xC0, 0xFF, 0xFF, 0x07, 
  0x00, 0x00, 0x00, 0x00, 0x00, 0x00, 0x00, 0x00, 0x00, 0x00, 0x00, 0x00, 
  };
