#define r3_width 32
#define r3_height 48
static char r3_bits[] = {
  0x00, 0x00, 0x00, 0x00, 0x00, 0x00, 0x00, 0x00, 0x00, 0x00, 0x00, 0x00, 
  0x00, 0x00, 0x00, 0x00, 0x00, 0x00, 0x00, 0x00, 0x00, 0x00, 0x00, 0x00, 
  0x00, 0x00, 0x00, 0x00, 0x00, 0x00, 0x00, 0x00, 0x00, 0x00, 0xE0, 0x00, 
  0x00, 0x1C, 0xF0, 0x01, 0x00, 0x3C, 0xF0, 0x07, 0x00, 0x7C, 0xF8, 0x07, 
  0x00, 0x7C, 0xF8, 0x07, 0x00, 0x7C, 0xF8, 0x07, 0x00, 0x7C, 0xF8, 0x07, 
  0x00, 0x7C, 0xF8, 0x07, 0x00, 0x7C, 0xF0, 0x07, 0x00, 0x7E, 0xF0, 0x07, 
  0x00, 0x7E, 0xF0, 0x07, 0x00, 0x7E, 0xF0, 0x07, 0x00, 0x7E, 0xF0, 0x07, 
  0x00, 0x7F, 0xF0, 0x07, 0x00, 0xFF, 0xF0, 0x07, 0x80, 0xFF, 0xF0, 0x07, 
  0x80, 0xFF, 0xFF, 0x07, 0xC0, 0xF3, 0xFF, 0x03, 0xC0, 0xF3, 0xCF, 0x00, 
  0xF0, 0xFF, 0x87, 0x01, 0xF0, 0xFF, 0xCF, 0x03, 0xC0, 0xFF, 0xF9, 0x03, 
  0x00, 0x0F, 0xF0, 0x03, 0x00, 0x00, 0xF0, 0x03, 0x00, 0x00, 0xF0, 0x03, 
  0x00, 0x00, 0xF0, 0x03, 0x00, 0x00, 0xF0, 0x03, 0x00, 0x00, 0xF0, 0x03, 
  0x00, 0x00, 0xF0, 0x03, 0x00, 0x00, 0xF8, 0x01, 0x00, 0x00, 0xF8, 0x01, 
  0x00, 0x00, 0xF8, 0x00, 0x00, 0x00, 0x7C, 0x00, 0x00, 0x00, 0x3C, 0x00, 
  0x00, 0x00, 0x1F, 0x00, 0x00, 0x00, 0x0F, 0x00, 0x00, 0x00, 0x00, 0x00, 
  0x00, 0x00, 0x00, 0x00, 0x00, 0x00, 0x00, 0x00, 0x00, 0x00, 0x00, 0x00, 
  };
